<?xml version="1.0" encoding="UTF-8"?>
<svg id="Layer_1" data-name="Layer 1" xmlns="http://www.w3.org/2000/svg" viewBox="0 0 320 320">
  <defs>
    <style>
      .cls-1 {
        fill: #fff;
      }
    </style>
  </defs>
  <path d="M159.37,143.18c27.88,0,56.01-20.48,56.01-46.99-1.6-28.37-26.06-34.2-56.01-34.2s-54.41,5.83-56.01,34.2c0,27.24,28.13,46.99,56.01,46.99Z" />
  <polygon points="163.51 271.85 155.22 271.85 151.08 225.66 167.65 225.66 163.51 271.85" />
  <polygon points="155.22 278.64 163.51 278.64 167.65 285.82 163.51 292.99 155.22 292.99 151.08 285.82 155.22 278.64" />
  <path d="M159.37,155.78c-27.89,0-51.01-14.14-55.35-32.65-.48,2.06-.74,4.16-.74,6.31,0,21.52,25.12,38.97,56.1,38.97s56.1-17.45,56.1-38.97c0-2.15-.26-4.26-.74-6.31-4.34,18.52-27.47,32.65-55.35,32.65Z" />
  <path d="M159.37,181.01c-27.89,0-51.01-14.14-55.35-32.65-.48,2.06-.74,4.16-.74,6.31,0,21.52,25.12,38.97,56.1,38.97s56.1-17.45,56.1-38.97c0-2.15-.26-4.26-.74-6.31-4.34,18.52-27.47,32.65-55.35,32.65Z" />
  <path d="M159.37,206.24c-27.89,0-51.01-14.14-55.35-32.65-.48,2.06-.74,4.16-.74,6.31,0,21.52,25.12,38.97,56.1,38.97s56.1-17.45,56.1-38.97c0-2.15-.26-4.26-.74-6.31-4.34,18.52-27.47,32.65-55.35,32.65Z" />
  <path d="M211.3,27.01c4.8,0,8.7,3.89,8.7,8.7s-3.89,8.7-8.7,8.7c-17.46,0-34.67,23.43-34.67,23.43,0-17.29,15.26-40.82,34.67-40.82Z" />
  <path class="cls-1" d="M190.69,121.79c-3.4,2.19-8.9,2.19-12.3,0s-3.4-5.73,0-7.92c12.35-7.96,7.94-26.47,7.94-26.47,12.23,7.88,18.07,25.55,4.35,34.39Z" />
  <path class="cls-1" d="M128.04,121.79c3.4,2.19,8.9,2.19,12.3,0s3.4-5.73,0-7.92c-12.35-7.96-7.94-26.47-7.94-26.47-12.23,7.88-18.07,25.55-4.35,34.39Z" />
  <path d="M108.7,27.01c-4.8,0-8.7,3.89-8.7,8.7s3.89,8.7,8.7,8.7c17.46,0,34.67,23.43,34.67,23.43,0-17.29-15.26-40.82-34.67-40.82Z" />
</svg>